<mxfile host="app.diagrams.net" modified="2023-12-04T22:57:43.753Z" agent="Mozilla/5.0 (Windows NT 10.0; Win64; x64) AppleWebKit/537.36 (KHTML, like Gecko) Chrome/119.0.0.0 Safari/537.36" etag="uRv7wu0FEScRO_S8aHUA" version="22.1.5" type="device" pages="3">
  <diagram name="Page-1" id="GchLbO1iNPoTyE5qInSt">
    <mxGraphModel dx="1434" dy="792" grid="1" gridSize="10" guides="1" tooltips="1" connect="1" arrows="1" fold="1" page="1" pageScale="1" pageWidth="850" pageHeight="1100" math="0" shadow="0">
      <root>
        <mxCell id="0" />
        <mxCell id="1" parent="0" />
        <mxCell id="mV-1oKqVjTQQlSf3rOhL-16" value="" style="rounded=1;whiteSpace=wrap;html=1;gradientColor=default;fillColor=none;strokeWidth=2;" parent="1" vertex="1">
          <mxGeometry x="60" y="130" width="410" height="190" as="geometry" />
        </mxCell>
        <mxCell id="mV-1oKqVjTQQlSf3rOhL-5" value="Lyrics" style="rounded=1;whiteSpace=wrap;html=1;fillColor=none;strokeWidth=2;" parent="1" vertex="1">
          <mxGeometry x="170" y="240" width="70" height="60" as="geometry" />
        </mxCell>
        <mxCell id="mV-1oKqVjTQQlSf3rOhL-12" style="edgeStyle=orthogonalEdgeStyle;rounded=0;orthogonalLoop=1;jettySize=auto;html=1;exitX=1;exitY=1;exitDx=0;exitDy=0;entryX=0.5;entryY=0;entryDx=0;entryDy=0;strokeWidth=2;" parent="1" source="mV-1oKqVjTQQlSf3rOhL-9" target="mV-1oKqVjTQQlSf3rOhL-6" edge="1">
          <mxGeometry relative="1" as="geometry" />
        </mxCell>
        <mxCell id="mV-1oKqVjTQQlSf3rOhL-6" value="Mood labels" style="rounded=1;whiteSpace=wrap;html=1;fillColor=none;strokeWidth=2;" parent="1" vertex="1">
          <mxGeometry x="250" y="240" width="90" height="60" as="geometry" />
        </mxCell>
        <mxCell id="mV-1oKqVjTQQlSf3rOhL-7" value="Mood encod(numerical)" style="rounded=1;whiteSpace=wrap;html=1;fillColor=none;strokeWidth=2;" parent="1" vertex="1">
          <mxGeometry x="350" y="240" width="100" height="60" as="geometry" />
        </mxCell>
        <mxCell id="mV-1oKqVjTQQlSf3rOhL-8" value="Song ID" style="rounded=1;whiteSpace=wrap;html=1;fillColor=none;strokeWidth=2;" parent="1" vertex="1">
          <mxGeometry x="80" y="240" width="80" height="60" as="geometry" />
        </mxCell>
        <mxCell id="mV-1oKqVjTQQlSf3rOhL-13" style="edgeStyle=orthogonalEdgeStyle;rounded=0;orthogonalLoop=1;jettySize=auto;html=1;entryX=0.5;entryY=0;entryDx=0;entryDy=0;strokeWidth=2;" parent="1" source="mV-1oKqVjTQQlSf3rOhL-9" target="mV-1oKqVjTQQlSf3rOhL-7" edge="1">
          <mxGeometry relative="1" as="geometry" />
        </mxCell>
        <mxCell id="mV-1oKqVjTQQlSf3rOhL-14" style="edgeStyle=orthogonalEdgeStyle;rounded=0;orthogonalLoop=1;jettySize=auto;html=1;entryX=0.5;entryY=0;entryDx=0;entryDy=0;strokeWidth=2;" parent="1" source="mV-1oKqVjTQQlSf3rOhL-9" target="mV-1oKqVjTQQlSf3rOhL-8" edge="1">
          <mxGeometry relative="1" as="geometry">
            <mxPoint x="120" y="230" as="targetPoint" />
          </mxGeometry>
        </mxCell>
        <mxCell id="mV-1oKqVjTQQlSf3rOhL-15" style="edgeStyle=orthogonalEdgeStyle;rounded=0;orthogonalLoop=1;jettySize=auto;html=1;exitX=0;exitY=1;exitDx=0;exitDy=0;entryX=0.5;entryY=0;entryDx=0;entryDy=0;strokeWidth=2;" parent="1" source="mV-1oKqVjTQQlSf3rOhL-9" target="mV-1oKqVjTQQlSf3rOhL-5" edge="1">
          <mxGeometry relative="1" as="geometry" />
        </mxCell>
        <mxCell id="mV-1oKqVjTQQlSf3rOhL-9" value="Lyrical Dataset" style="ellipse;whiteSpace=wrap;html=1;fillColor=none;strokeWidth=2;" parent="1" vertex="1">
          <mxGeometry x="190" y="140" width="120" height="80" as="geometry" />
        </mxCell>
        <mxCell id="mV-1oKqVjTQQlSf3rOhL-23" style="edgeStyle=orthogonalEdgeStyle;rounded=0;orthogonalLoop=1;jettySize=auto;html=1;strokeWidth=2;" parent="1" source="mV-1oKqVjTQQlSf3rOhL-18" edge="1">
          <mxGeometry relative="1" as="geometry">
            <mxPoint x="160" y="440" as="targetPoint" />
          </mxGeometry>
        </mxCell>
        <mxCell id="mV-1oKqVjTQQlSf3rOhL-18" value="GPT2Tokenizer" style="rounded=1;whiteSpace=wrap;html=1;fillColor=none;strokeWidth=4;" parent="1" vertex="1">
          <mxGeometry x="100" y="370" width="120" height="30" as="geometry" />
        </mxCell>
        <mxCell id="mV-1oKqVjTQQlSf3rOhL-19" value="Lyrics" style="ellipse;whiteSpace=wrap;html=1;fillColor=none;strokeWidth=2;" parent="1" vertex="1">
          <mxGeometry x="85" y="330" width="65" height="30" as="geometry" />
        </mxCell>
        <mxCell id="mV-1oKqVjTQQlSf3rOhL-20" value="Numerical labels" style="ellipse;whiteSpace=wrap;html=1;fillColor=none;strokeWidth=2;" parent="1" vertex="1">
          <mxGeometry x="270" y="370" width="100" height="40" as="geometry" />
        </mxCell>
        <mxCell id="mV-1oKqVjTQQlSf3rOhL-24" value="GPT2ForSequenceClassification" style="rounded=1;whiteSpace=wrap;html=1;fillColor=none;strokeWidth=4;" parent="1" vertex="1">
          <mxGeometry x="85" y="440" width="250" height="80" as="geometry" />
        </mxCell>
        <mxCell id="mV-1oKqVjTQQlSf3rOhL-39" style="edgeStyle=orthogonalEdgeStyle;rounded=0;orthogonalLoop=1;jettySize=auto;html=1;entryX=0.5;entryY=0;entryDx=0;entryDy=0;strokeWidth=2;" parent="1" source="mV-1oKqVjTQQlSf3rOhL-27" target="mV-1oKqVjTQQlSf3rOhL-41" edge="1">
          <mxGeometry relative="1" as="geometry">
            <mxPoint x="210" y="650" as="targetPoint" />
          </mxGeometry>
        </mxCell>
        <mxCell id="mV-1oKqVjTQQlSf3rOhL-27" value="Softmax(logits)" style="rounded=1;whiteSpace=wrap;html=1;fillColor=none;strokeWidth=2;" parent="1" vertex="1">
          <mxGeometry x="90" y="560" width="240" height="60" as="geometry" />
        </mxCell>
        <mxCell id="mV-1oKqVjTQQlSf3rOhL-32" value="" style="endArrow=classic;html=1;rounded=0;entryX=0.621;entryY=-0.033;entryDx=0;entryDy=0;entryPerimeter=0;strokeWidth=2;" parent="1" target="mV-1oKqVjTQQlSf3rOhL-27" edge="1">
          <mxGeometry width="50" height="50" relative="1" as="geometry">
            <mxPoint x="239" y="520" as="sourcePoint" />
            <mxPoint x="240" y="548" as="targetPoint" />
            <Array as="points" />
          </mxGeometry>
        </mxCell>
        <mxCell id="mV-1oKqVjTQQlSf3rOhL-33" value="" style="endArrow=classic;html=1;rounded=0;strokeWidth=2;" parent="1" edge="1">
          <mxGeometry width="50" height="50" relative="1" as="geometry">
            <mxPoint x="180" y="520" as="sourcePoint" />
            <mxPoint x="180" y="560" as="targetPoint" />
          </mxGeometry>
        </mxCell>
        <mxCell id="mV-1oKqVjTQQlSf3rOhL-36" value="" style="endArrow=classic;html=1;rounded=0;entryX=0.875;entryY=0.033;entryDx=0;entryDy=0;entryPerimeter=0;strokeWidth=2;" parent="1" target="mV-1oKqVjTQQlSf3rOhL-27" edge="1">
          <mxGeometry width="50" height="50" relative="1" as="geometry">
            <mxPoint x="300" y="520" as="sourcePoint" />
            <mxPoint x="280" y="550" as="targetPoint" />
          </mxGeometry>
        </mxCell>
        <mxCell id="mV-1oKqVjTQQlSf3rOhL-37" value="" style="endArrow=classic;html=1;rounded=0;entryX=0.121;entryY=0;entryDx=0;entryDy=0;entryPerimeter=0;strokeWidth=2;" parent="1" target="mV-1oKqVjTQQlSf3rOhL-27" edge="1">
          <mxGeometry width="50" height="50" relative="1" as="geometry">
            <mxPoint x="119" y="520" as="sourcePoint" />
            <mxPoint x="119.5" y="548" as="targetPoint" />
          </mxGeometry>
        </mxCell>
        <mxCell id="mV-1oKqVjTQQlSf3rOhL-46" style="edgeStyle=orthogonalEdgeStyle;rounded=0;orthogonalLoop=1;jettySize=auto;html=1;entryX=0.5;entryY=0;entryDx=0;entryDy=0;strokeWidth=2;" parent="1" source="mV-1oKqVjTQQlSf3rOhL-41" target="mV-1oKqVjTQQlSf3rOhL-47" edge="1">
          <mxGeometry relative="1" as="geometry">
            <mxPoint x="210" y="790" as="targetPoint" />
          </mxGeometry>
        </mxCell>
        <mxCell id="mV-1oKqVjTQQlSf3rOhL-41" value="Class Prediction" style="rounded=1;whiteSpace=wrap;html=1;fillColor=none;strokeWidth=2;" parent="1" vertex="1">
          <mxGeometry x="150" y="680" width="120" height="60" as="geometry" />
        </mxCell>
        <mxCell id="mV-1oKqVjTQQlSf3rOhL-42" value="Argmax()" style="ellipse;whiteSpace=wrap;html=1;fillColor=none;strokeWidth=2;" parent="1" vertex="1">
          <mxGeometry x="215" y="630" width="70" height="30" as="geometry" />
        </mxCell>
        <mxCell id="mV-1oKqVjTQQlSf3rOhL-43" value="" style="endArrow=none;dashed=1;html=1;dashPattern=1 3;strokeWidth=2;rounded=0;exitX=1;exitY=0.5;exitDx=0;exitDy=0;entryX=1;entryY=0.5;entryDx=0;entryDy=0;" parent="1" source="mV-1oKqVjTQQlSf3rOhL-41" target="mV-1oKqVjTQQlSf3rOhL-24" edge="1">
          <mxGeometry width="50" height="50" relative="1" as="geometry">
            <mxPoint x="280" y="420" as="sourcePoint" />
            <mxPoint x="380" y="460" as="targetPoint" />
            <Array as="points">
              <mxPoint x="370" y="710" />
              <mxPoint x="370" y="480" />
            </Array>
          </mxGeometry>
        </mxCell>
        <mxCell id="mV-1oKqVjTQQlSf3rOhL-44" value="" style="endArrow=classic;html=1;rounded=0;strokeWidth=2;" parent="1" edge="1">
          <mxGeometry width="50" height="50" relative="1" as="geometry">
            <mxPoint x="370" y="590" as="sourcePoint" />
            <mxPoint x="370" y="550" as="targetPoint" />
          </mxGeometry>
        </mxCell>
        <mxCell id="mV-1oKqVjTQQlSf3rOhL-45" value="Training" style="ellipse;whiteSpace=wrap;html=1;fillColor=none;strokeWidth=2;" parent="1" vertex="1">
          <mxGeometry x="380" y="560" width="70" height="40" as="geometry" />
        </mxCell>
        <mxCell id="mV-1oKqVjTQQlSf3rOhL-47" value="Metrics" style="rounded=1;whiteSpace=wrap;html=1;fillColor=none;strokeWidth=2;" parent="1" vertex="1">
          <mxGeometry x="150" y="770" width="120" height="50" as="geometry" />
        </mxCell>
        <mxCell id="mV-1oKqVjTQQlSf3rOhL-48" value="four&amp;nbsp;&lt;br&gt;classes" style="ellipse;whiteSpace=wrap;html=1;fillColor=none;strokeWidth=2;" parent="1" vertex="1">
          <mxGeometry x="30" y="520" width="60" height="40" as="geometry" />
        </mxCell>
        <mxCell id="4-Rfj1Kdx26H1c4bBnlP-1" style="edgeStyle=orthogonalEdgeStyle;rounded=0;orthogonalLoop=1;jettySize=auto;html=1;exitX=0.25;exitY=1;exitDx=0;exitDy=0;entryX=0.519;entryY=0;entryDx=0;entryDy=0;entryPerimeter=0;strokeWidth=2;" parent="1" source="mV-1oKqVjTQQlSf3rOhL-16" target="mV-1oKqVjTQQlSf3rOhL-18" edge="1">
          <mxGeometry relative="1" as="geometry" />
        </mxCell>
        <mxCell id="4-Rfj1Kdx26H1c4bBnlP-2" style="edgeStyle=orthogonalEdgeStyle;rounded=0;orthogonalLoop=1;jettySize=auto;html=1;exitX=0.75;exitY=1;exitDx=0;exitDy=0;entryX=0.693;entryY=-0.004;entryDx=0;entryDy=0;entryPerimeter=0;strokeWidth=2;" parent="1" source="mV-1oKqVjTQQlSf3rOhL-16" target="mV-1oKqVjTQQlSf3rOhL-24" edge="1">
          <mxGeometry relative="1" as="geometry">
            <Array as="points">
              <mxPoint x="368" y="360" />
              <mxPoint x="258" y="360" />
            </Array>
          </mxGeometry>
        </mxCell>
      </root>
    </mxGraphModel>
  </diagram>
  <diagram id="_OglIhIht3M4rGXMLFDZ" name="Page-2">
    <mxGraphModel dx="1434" dy="792" grid="1" gridSize="10" guides="1" tooltips="1" connect="1" arrows="1" fold="1" page="1" pageScale="1" pageWidth="850" pageHeight="1100" math="0" shadow="0">
      <root>
        <mxCell id="0" />
        <mxCell id="1" parent="0" />
        <mxCell id="_8660Brz_xGUj415XtKB-8" value="{&lt;b style=&quot;border-color: var(--border-color);&quot;&gt;&#39;messages&#39;:&lt;/b&gt;&lt;br style=&quot;border-color: var(--border-color);&quot;&gt;&amp;nbsp;[{ &#39;&lt;b style=&quot;border-color: var(--border-color);&quot;&gt;role&#39;:&lt;/b&gt;, &#39;system&#39;,&amp;nbsp;&lt;b style=&quot;border-color: var(--border-color);&quot;&gt;&#39;content&#39;:&lt;/b&gt;&amp;nbsp;&quot;&amp;lt;prompt&amp;gt;&quot;},&amp;nbsp;&lt;br style=&quot;border-color: var(--border-color);&quot;&gt;{&amp;nbsp;&lt;b style=&quot;border-color: var(--border-color);&quot;&gt;&#39;role&#39;:&lt;/b&gt;&amp;nbsp;&#39;user&#39;,&amp;nbsp;&lt;b style=&quot;border-color: var(--border-color);&quot;&gt;&#39;content&#39;:&lt;/b&gt;&amp;nbsp;&quot;&amp;lt;Lyrics&amp;gt;&quot;},&lt;br style=&quot;border-color: var(--border-color);&quot;&gt;{&amp;nbsp;&lt;b style=&quot;border-color: var(--border-color);&quot;&gt;&#39;role&#39;:&lt;/b&gt;&amp;nbsp;&#39;assistant&#39; ,&amp;nbsp;&lt;b style=&quot;border-color: var(--border-color);&quot;&gt;&#39;content&#39;:&lt;/b&gt;&amp;nbsp;&#39;&amp;lt;mood&amp;gt;&#39;}]&lt;br style=&quot;border-color: var(--border-color);&quot;&gt;}" style="shape=note;whiteSpace=wrap;html=1;backgroundOutline=1;darkOpacity=0.05;fillColor=none;strokeWidth=2;" parent="1" vertex="1">
          <mxGeometry x="315" y="340" width="240" height="110" as="geometry" />
        </mxCell>
        <mxCell id="_8660Brz_xGUj415XtKB-9" style="edgeStyle=orthogonalEdgeStyle;rounded=0;orthogonalLoop=1;jettySize=auto;html=1;shape=arrow;strokeWidth=2;" parent="1" source="_ObLRer9sb4h27vAWSU8-1" target="_8660Brz_xGUj415XtKB-8" edge="1">
          <mxGeometry relative="1" as="geometry" />
        </mxCell>
        <mxCell id="_ObLRer9sb4h27vAWSU8-1" value="" style="rounded=1;whiteSpace=wrap;html=1;fillColor=none;strokeWidth=2;" parent="1" vertex="1">
          <mxGeometry x="300" y="140" width="270" height="150" as="geometry" />
        </mxCell>
        <mxCell id="Joi1lDfrOlfMsABNS_wB-5" style="edgeStyle=orthogonalEdgeStyle;rounded=0;orthogonalLoop=1;jettySize=auto;html=1;strokeWidth=2;" parent="1" source="Joi1lDfrOlfMsABNS_wB-1" target="Joi1lDfrOlfMsABNS_wB-2" edge="1">
          <mxGeometry relative="1" as="geometry">
            <Array as="points">
              <mxPoint x="353" y="170" />
            </Array>
          </mxGeometry>
        </mxCell>
        <mxCell id="Joi1lDfrOlfMsABNS_wB-6" style="edgeStyle=orthogonalEdgeStyle;rounded=0;orthogonalLoop=1;jettySize=auto;html=1;exitX=0.5;exitY=1;exitDx=0;exitDy=0;strokeWidth=2;" parent="1" source="Joi1lDfrOlfMsABNS_wB-1" target="Joi1lDfrOlfMsABNS_wB-3" edge="1">
          <mxGeometry relative="1" as="geometry" />
        </mxCell>
        <mxCell id="Joi1lDfrOlfMsABNS_wB-7" style="edgeStyle=orthogonalEdgeStyle;rounded=0;orthogonalLoop=1;jettySize=auto;html=1;exitX=1;exitY=0.5;exitDx=0;exitDy=0;strokeWidth=2;" parent="1" source="Joi1lDfrOlfMsABNS_wB-1" target="Joi1lDfrOlfMsABNS_wB-4" edge="1">
          <mxGeometry relative="1" as="geometry" />
        </mxCell>
        <mxCell id="Joi1lDfrOlfMsABNS_wB-1" value="Dataset" style="ellipse;whiteSpace=wrap;html=1;fillColor=none;strokeWidth=2;" parent="1" vertex="1">
          <mxGeometry x="392.5" y="150" width="85" height="40" as="geometry" />
        </mxCell>
        <mxCell id="Joi1lDfrOlfMsABNS_wB-2" value="Prompt&amp;nbsp;" style="ellipse;whiteSpace=wrap;html=1;fillColor=none;strokeWidth=2;" parent="1" vertex="1">
          <mxGeometry x="312.5" y="230" width="80" height="40" as="geometry" />
        </mxCell>
        <mxCell id="Joi1lDfrOlfMsABNS_wB-3" value="Lyrics" style="ellipse;whiteSpace=wrap;html=1;fillColor=none;strokeWidth=2;" parent="1" vertex="1">
          <mxGeometry x="397.5" y="230" width="75" height="40" as="geometry" />
        </mxCell>
        <mxCell id="Joi1lDfrOlfMsABNS_wB-4" value="Mood" style="ellipse;whiteSpace=wrap;html=1;fillColor=none;strokeWidth=2;" parent="1" vertex="1">
          <mxGeometry x="477.5" y="230" width="70" height="40" as="geometry" />
        </mxCell>
        <mxCell id="rQHHP0HwqIdfR3n4rNn0-1" style="edgeStyle=orthogonalEdgeStyle;rounded=0;orthogonalLoop=1;jettySize=auto;html=1;entryX=0.5;entryY=0;entryDx=0;entryDy=0;strokeWidth=2;" parent="1" source="rSYCCPlqBnTRYwq1bG2g-5" target="rSYCCPlqBnTRYwq1bG2g-12" edge="1">
          <mxGeometry relative="1" as="geometry" />
        </mxCell>
        <mxCell id="rSYCCPlqBnTRYwq1bG2g-5" value="Create a fine-tuned model" style="rounded=1;whiteSpace=wrap;html=1;fillColor=none;strokeWidth=2;" parent="1" vertex="1">
          <mxGeometry x="610" y="390" width="120" height="60" as="geometry" />
        </mxCell>
        <mxCell id="rSYCCPlqBnTRYwq1bG2g-7" value="" style="edgeStyle=orthogonalEdgeStyle;rounded=0;orthogonalLoop=1;jettySize=auto;html=1;strokeWidth=2;" parent="1" source="_ObLRer9sb4h27vAWSU8-1" target="rSYCCPlqBnTRYwq1bG2g-2" edge="1">
          <mxGeometry relative="1" as="geometry">
            <mxPoint x="435" y="400" as="targetPoint" />
            <mxPoint x="435" y="310" as="sourcePoint" />
            <Array as="points">
              <mxPoint x="650" y="215" />
            </Array>
          </mxGeometry>
        </mxCell>
        <mxCell id="rSYCCPlqBnTRYwq1bG2g-11" style="edgeStyle=orthogonalEdgeStyle;rounded=0;orthogonalLoop=1;jettySize=auto;html=1;entryX=0.5;entryY=0;entryDx=0;entryDy=0;strokeWidth=2;" parent="1" source="rSYCCPlqBnTRYwq1bG2g-2" target="rSYCCPlqBnTRYwq1bG2g-4" edge="1">
          <mxGeometry relative="1" as="geometry" />
        </mxCell>
        <mxCell id="rSYCCPlqBnTRYwq1bG2g-2" value="Create train, validation and test .jsonl files." style="rounded=1;whiteSpace=wrap;html=1;fillColor=none;strokeWidth=2;" parent="1" vertex="1">
          <mxGeometry x="612.5" y="180" width="115" height="70" as="geometry" />
        </mxCell>
        <mxCell id="rSYCCPlqBnTRYwq1bG2g-10" style="edgeStyle=orthogonalEdgeStyle;rounded=0;orthogonalLoop=1;jettySize=auto;html=1;entryX=0.5;entryY=0;entryDx=0;entryDy=0;strokeWidth=2;" parent="1" source="rSYCCPlqBnTRYwq1bG2g-4" target="rSYCCPlqBnTRYwq1bG2g-5" edge="1">
          <mxGeometry relative="1" as="geometry" />
        </mxCell>
        <mxCell id="rSYCCPlqBnTRYwq1bG2g-4" value="Uploading training and validation files" style="rounded=1;whiteSpace=wrap;html=1;fillColor=none;strokeWidth=2;" parent="1" vertex="1">
          <mxGeometry x="610" y="290" width="120" height="60" as="geometry" />
        </mxCell>
        <mxCell id="rSYCCPlqBnTRYwq1bG2g-12" value="Model Testing&lt;br&gt;+&lt;br&gt;Metrics" style="rounded=1;whiteSpace=wrap;html=1;fillColor=none;strokeWidth=2;" parent="1" vertex="1">
          <mxGeometry x="610" y="490" width="120" height="60" as="geometry" />
        </mxCell>
        <mxCell id="0EmcJezWehv9iLn6TFu5-3" value="" style="endArrow=none;dashed=1;html=1;dashPattern=1 3;strokeWidth=2;rounded=0;" parent="1" edge="1">
          <mxGeometry width="50" height="50" relative="1" as="geometry">
            <mxPoint x="590" y="470" as="sourcePoint" />
            <mxPoint x="750" y="280" as="targetPoint" />
            <Array as="points">
              <mxPoint x="590" y="280" />
            </Array>
          </mxGeometry>
        </mxCell>
        <mxCell id="0EmcJezWehv9iLn6TFu5-4" value="" style="endArrow=none;dashed=1;html=1;dashPattern=1 3;strokeWidth=2;rounded=0;" parent="1" edge="1">
          <mxGeometry width="50" height="50" relative="1" as="geometry">
            <mxPoint x="590" y="470" as="sourcePoint" />
            <mxPoint x="750" y="280" as="targetPoint" />
            <Array as="points">
              <mxPoint x="750" y="470" />
            </Array>
          </mxGeometry>
        </mxCell>
      </root>
    </mxGraphModel>
  </diagram>
  <diagram id="94xM6uwidhWpOOv7LRtw" name="Page-3">
    <mxGraphModel dx="1434" dy="792" grid="1" gridSize="10" guides="1" tooltips="1" connect="1" arrows="1" fold="1" page="1" pageScale="1" pageWidth="850" pageHeight="1100" math="0" shadow="0">
      <root>
        <mxCell id="0" />
        <mxCell id="1" parent="0" />
        <mxCell id="8uczWQQy4p3wx889NDqz-1" value="&lt;p&gt;&lt;b&gt;&quot;You are a chatbot that, when prompted with song lyrics, predicts one of the emotions (&#39;Happy&#39;, &#39;Sad&#39;, &#39;Angry&#39;, or &#39;Relaxed&#39;)&amp;nbsp;&lt;span style=&quot;background-color: initial;&quot;&gt;without providing any explanation. Reply with only the emotion name. &quot;&lt;/span&gt;&lt;/b&gt;&lt;/p&gt;" style="shape=card;whiteSpace=wrap;html=1;strokeWidth=3;" parent="1" vertex="1">
          <mxGeometry x="100" y="150" width="350" height="120" as="geometry" />
        </mxCell>
        <mxCell id="8uczWQQy4p3wx889NDqz-2" value="&lt;b&gt;Learning Rate:&lt;/b&gt; 1e-5&lt;br&gt;&lt;b&gt;StepLR &lt;/b&gt;(gamma = 0.9)&lt;br&gt;&lt;b&gt;Epochs:&lt;/b&gt; 20&lt;br&gt;&lt;b&gt;Batch size: &lt;/b&gt;8" style="rounded=1;whiteSpace=wrap;html=1;strokeWidth=2;" parent="1" vertex="1">
          <mxGeometry x="150" y="470" width="150" height="120" as="geometry" />
        </mxCell>
        <mxCell id="8uczWQQy4p3wx889NDqz-3" value="&lt;b&gt;Learning Rate:&lt;/b&gt; 1e-5&lt;br&gt;&lt;b&gt;StepLR &lt;/b&gt;(gamma = 0.9)&lt;br&gt;&lt;b&gt;Epochs:&lt;/b&gt; 20&lt;br&gt;&lt;b&gt;Batch size: &lt;/b&gt;4" style="rounded=1;whiteSpace=wrap;html=1;strokeWidth=2;" parent="1" vertex="1">
          <mxGeometry x="380" y="470" width="150" height="120" as="geometry" />
        </mxCell>
      </root>
    </mxGraphModel>
  </diagram>
</mxfile>
